P3
30 50
255
0 0 0
0 8 0
0 17 0
0 26 0
0 35 0
0 44 0
0 52 0
0 61 0
0 70 0
0 79 0
0 88 0
0 97 0
0 105 0
0 114 0
0 123 0
0 132 0
0 141 0
0 150 0
0 158 0
0 167 0
0 176 0
0 185 0
0 194 0
0 203 0
0 211 0
0 220 0
0 229 0
0 238 0
0 247 0
0 255 0
5 0 0
5 8 0
5 17 0
5 26 0
5 35 0
5 44 0
5 52 0
5 61 0
5 70 0
5 79 0
5 88 0
5 97 0
5 105 0
5 114 0
5 123 0
5 132 0
5 141 0
5 150 0
5 158 0
5 167 0
5 176 0
5 185 0
5 194 0
5 203 0
5 211 0
5 220 0
5 229 0
5 238 0
5 247 0
5 255 0
10 0 0
10 8 0
10 17 0
10 26 0
10 35 0
10 44 0
10 52 0
10 61 0
10 70 0
10 79 0
10 88 0
10 97 0
10 105 0
10 114 0
10 123 0
10 132 0
10 141 0
10 150 0
10 158 0
10 167 0
10 176 0
10 185 0
10 194 0
10 203 0
10 211 0
10 220 0
10 229 0
10 238 0
10 247 0
10 255 0
15 0 0
15 8 0
15 17 0
15 26 0
15 35 0
15 44 0
15 52 0
15 61 0
15 70 0
15 79 0
15 88 0
15 97 0
15 105 0
15 114 0
15 123 0
15 132 0
15 141 0
15 150 0
15 158 0
15 167 0
15 176 0
15 185 0
15 194 0
15 203 0
15 211 0
15 220 0
15 229 0
15 238 0
15 247 0
15 255 0
20 0 0
20 8 0
20 17 0
20 26 0
20 35 0
20 44 0
20 52 0
20 61 0
20 70 0
20 79 0
20 88 0
20 97 0
20 105 0
20 114 0
20 123 0
20 132 0
20 141 0
20 150 0
20 158 0
20 167 0
20 176 0
20 185 0
20 194 0
20 203 0
20 211 0
20 220 0
20 229 0
20 238 0
20 247 0
20 255 0
26 0 0
26 8 0
26 17 0
26 26 0
26 35 0
26 44 0
26 52 0
26 61 0
26 70 0
26 79 0
26 88 0
26 97 0
26 105 0
26 114 0
26 123 0
26 132 0
26 141 0
26 150 0
26 158 0
26 167 0
26 176 0
26 185 0
26 194 0
26 203 0
26 211 0
26 220 0
26 229 0
26 238 0
26 247 0
26 255 0
31 0 0
31 8 0
31 17 0
31 26 0
31 35 0
31 44 0
31 52 0
31 61 0
31 70 0
31 79 0
31 88 0
31 97 0
31 105 0
31 114 0
31 123 0
31 132 0
31 141 0
31 150 0
31 158 0
31 167 0
31 176 0
31 185 0
31 194 0
31 203 0
31 211 0
31 220 0
31 229 0
31 238 0
31 247 0
31 255 0
36 0 0
36 8 0
36 17 0
36 26 0
36 35 0
36 44 0
36 52 0
36 61 0
36 70 0
36 79 0
36 88 0
36 97 0
36 105 0
36 114 0
36 123 0
36 132 0
36 141 0
36 150 0
36 158 0
36 167 0
36 176 0
36 185 0
36 194 0
36 203 0
36 211 0
36 220 0
36 229 0
36 238 0
36 247 0
36 255 0
41 0 0
41 8 0
41 17 0
41 26 0
41 35 0
41 44 0
41 52 0
41 61 0
41 70 0
41 79 0
41 88 0
41 97 0
41 105 0
41 114 0
41 123 0
41 132 0
41 141 0
41 150 0
41 158 0
41 167 0
41 176 0
41 185 0
41 194 0
41 203 0
41 211 0
41 220 0
41 229 0
41 238 0
41 247 0
41 255 0
47 0 0
47 8 0
47 17 0
47 26 0
47 35 0
47 44 0
47 52 0
47 61 0
47 70 0
47 79 0
47 88 0
47 97 0
47 105 0
47 114 0
47 123 0
47 132 0
47 141 0
47 150 0
47 158 0
47 167 0
47 176 0
47 185 0
47 194 0
47 203 0
47 211 0
47 220 0
47 229 0
47 238 0
47 247 0
47 255 0
52 0 0
52 8 0
52 17 0
52 26 0
52 35 0
52 44 0
52 52 0
52 61 0
52 70 0
52 79 0
52 88 0
52 97 0
52 105 0
52 114 0
52 123 0
52 132 0
52 141 0
52 150 0
52 158 0
52 167 0
52 176 0
52 185 0
52 194 0
52 203 0
52 211 0
52 220 0
52 229 0
52 238 0
52 247 0
52 255 0
57 0 0
57 8 0
57 17 0
57 26 0
57 35 0
57 44 0
57 52 0
57 61 0
57 70 0
57 79 0
57 88 0
57 97 0
57 105 0
57 114 0
57 123 0
57 132 0
57 141 0
57 150 0
57 158 0
57 167 0
57 176 0
57 185 0
57 194 0
57 203 0
57 211 0
57 220 0
57 229 0
57 238 0
57 247 0
57 255 0
62 0 0
62 8 0
62 17 0
62 26 0
62 35 0
62 44 0
62 52 0
62 61 0
62 70 0
62 79 0
62 88 0
62 97 0
62 105 0
62 114 0
62 123 0
62 132 0
62 141 0
62 150 0
62 158 0
62 167 0
62 176 0
62 185 0
62 194 0
62 203 0
62 211 0
62 220 0
62 229 0
62 238 0
62 247 0
62 255 0
67 0 0
67 8 0
67 17 0
67 26 0
67 35 0
67 44 0
67 52 0
67 61 0
67 70 0
67 79 0
67 88 0
67 97 0
67 105 0
67 114 0
67 123 0
67 132 0
67 141 0
67 150 0
67 158 0
67 167 0
67 176 0
67 185 0
67 194 0
67 203 0
67 211 0
67 220 0
67 229 0
67 238 0
67 247 0
67 255 0
73 0 0
73 8 0
73 17 0
73 26 0
73 35 0
73 44 0
73 52 0
73 61 0
73 70 0
73 79 0
73 88 0
73 97 0
73 105 0
73 114 0
73 123 0
73 132 0
73 141 0
73 150 0
73 158 0
73 167 0
73 176 0
73 185 0
73 194 0
73 203 0
73 211 0
73 220 0
73 229 0
73 238 0
73 247 0
73 255 0
78 0 0
78 8 0
78 17 0
78 26 0
78 35 0
78 44 0
78 52 0
78 61 0
78 70 0
78 79 0
78 88 0
78 97 0
78 105 0
78 114 0
78 123 0
78 132 0
78 141 0
78 150 0
78 158 0
78 167 0
78 176 0
78 185 0
78 194 0
78 203 0
78 211 0
78 220 0
78 229 0
78 238 0
78 247 0
78 255 0
83 0 0
83 8 0
83 17 0
83 26 0
83 35 0
83 44 0
83 52 0
83 61 0
83 70 0
83 79 0
83 88 0
83 97 0
83 105 0
83 114 0
83 123 0
83 132 0
83 141 0
83 150 0
83 158 0
83 167 0
83 176 0
83 185 0
83 194 0
83 203 0
83 211 0
83 220 0
83 229 0
83 238 0
83 247 0
83 255 0
88 0 0
88 8 0
88 17 0
88 26 0
88 35 0
88 44 0
88 52 0
88 61 0
88 70 0
88 79 0
88 88 0
88 97 0
88 105 0
88 114 0
88 123 0
88 132 0
88 141 0
88 150 0
88 158 0
88 167 0
88 176 0
88 185 0
88 194 0
88 203 0
88 211 0
88 220 0
88 229 0
88 238 0
88 247 0
88 255 0
94 0 0
94 8 0
94 17 0
94 26 0
94 35 0
94 44 0
94 52 0
94 61 0
94 70 0
94 79 0
94 88 0
94 97 0
94 105 0
94 114 0
94 123 0
94 132 0
94 141 0
94 150 0
94 158 0
94 167 0
94 176 0
94 185 0
94 194 0
94 203 0
94 211 0
94 220 0
94 229 0
94 238 0
94 247 0
94 255 0
99 0 0
99 8 0
99 17 0
99 26 0
99 35 0
99 44 0
99 52 0
99 61 0
99 70 0
99 79 0
99 88 0
99 97 0
99 105 0
99 114 0
99 123 0
99 132 0
99 141 0
99 150 0
99 158 0
99 167 0
99 176 0
99 185 0
99 194 0
99 203 0
99 211 0
99 220 0
99 229 0
99 238 0
99 247 0
99 255 0
104 0 0
104 8 0
104 17 0
104 26 0
104 35 0
104 44 0
104 52 0
104 61 0
104 70 0
104 79 0
104 88 0
104 97 0
104 105 0
104 114 0
104 123 0
104 132 0
104 141 0
104 150 0
104 158 0
104 167 0
104 176 0
104 185 0
104 194 0
104 203 0
104 211 0
104 220 0
104 229 0
104 238 0
104 247 0
104 255 0
109 0 0
109 8 0
109 17 0
109 26 0
109 35 0
109 44 0
109 52 0
109 61 0
109 70 0
109 79 0
109 88 0
109 97 0
109 105 0
109 114 0
109 123 0
109 132 0
109 141 0
109 150 0
109 158 0
109 167 0
109 176 0
109 185 0
109 194 0
109 203 0
109 211 0
109 220 0
109 229 0
109 238 0
109 247 0
109 255 0
114 0 0
114 8 0
114 17 0
114 26 0
114 35 0
114 44 0
114 52 0
114 61 0
114 70 0
114 79 0
114 88 0
114 97 0
114 105 0
114 114 0
114 123 0
114 132 0
114 141 0
114 150 0
114 158 0
114 167 0
114 176 0
114 185 0
114 194 0
114 203 0
114 211 0
114 220 0
114 229 0
114 238 0
114 247 0
114 255 0
120 0 0
120 8 0
120 17 0
120 26 0
120 35 0
120 44 0
120 52 0
120 61 0
120 70 0
120 79 0
120 88 0
120 97 0
120 105 0
120 114 0
120 123 0
120 132 0
120 141 0
120 150 0
120 158 0
120 167 0
120 176 0
120 185 0
120 194 0
120 203 0
120 211 0
120 220 0
120 229 0
120 238 0
120 247 0
120 255 0
125 0 0
125 8 0
125 17 0
125 26 0
125 35 0
125 44 0
125 52 0
125 61 0
125 70 0
125 79 0
125 88 0
125 97 0
125 105 0
125 114 0
125 123 0
125 132 0
125 141 0
125 150 0
125 158 0
125 167 0
125 176 0
125 185 0
125 194 0
125 203 0
125 211 0
125 220 0
125 229 0
125 238 0
125 247 0
125 255 0
130 0 0
130 8 0
130 17 0
130 26 0
130 35 0
130 44 0
130 52 0
130 61 0
130 70 0
130 79 0
130 88 0
130 97 0
130 105 0
130 114 0
130 123 0
130 132 0
130 141 0
130 150 0
130 158 0
130 167 0
130 176 0
130 185 0
130 194 0
130 203 0
130 211 0
130 220 0
130 229 0
130 238 0
130 247 0
130 255 0
135 0 0
135 8 0
135 17 0
135 26 0
135 35 0
135 44 0
135 52 0
135 61 0
135 70 0
135 79 0
135 88 0
135 97 0
135 105 0
135 114 0
135 123 0
135 132 0
135 141 0
135 150 0
135 158 0
135 167 0
135 176 0
135 185 0
135 194 0
135 203 0
135 211 0
135 220 0
135 229 0
135 238 0
135 247 0
135 255 0
141 0 0
141 8 0
141 17 0
141 26 0
141 35 0
141 44 0
141 52 0
141 61 0
141 70 0
141 79 0
141 88 0
141 97 0
141 105 0
141 114 0
141 123 0
141 132 0
141 141 0
141 150 0
141 158 0
141 167 0
141 176 0
141 185 0
141 194 0
141 203 0
141 211 0
141 220 0
141 229 0
141 238 0
141 247 0
141 255 0
146 0 0
146 8 0
146 17 0
146 26 0
146 35 0
146 44 0
146 52 0
146 61 0
146 70 0
146 79 0
146 88 0
146 97 0
146 105 0
146 114 0
146 123 0
146 132 0
146 141 0
146 150 0
146 158 0
146 167 0
146 176 0
146 185 0
146 194 0
146 203 0
146 211 0
146 220 0
146 229 0
146 238 0
146 247 0
146 255 0
151 0 0
151 8 0
151 17 0
151 26 0
151 35 0
151 44 0
151 52 0
151 61 0
151 70 0
151 79 0
151 88 0
151 97 0
151 105 0
151 114 0
151 123 0
151 132 0
151 141 0
151 150 0
151 158 0
151 167 0
151 176 0
151 185 0
151 194 0
151 203 0
151 211 0
151 220 0
151 229 0
151 238 0
151 247 0
151 255 0
156 0 0
156 8 0
156 17 0
156 26 0
156 35 0
156 44 0
156 52 0
156 61 0
156 70 0
156 79 0
156 88 0
156 97 0
156 105 0
156 114 0
156 123 0
156 132 0
156 141 0
156 150 0
156 158 0
156 167 0
156 176 0
156 185 0
156 194 0
156 203 0
156 211 0
156 220 0
156 229 0
156 238 0
156 247 0
156 255 0
161 0 0
161 8 0
161 17 0
161 26 0
161 35 0
161 44 0
161 52 0
161 61 0
161 70 0
161 79 0
161 88 0
161 97 0
161 105 0
161 114 0
161 123 0
161 132 0
161 141 0
161 150 0
161 158 0
161 167 0
161 176 0
161 185 0
161 194 0
161 203 0
161 211 0
161 220 0
161 229 0
161 238 0
161 247 0
161 255 0
167 0 0
167 8 0
167 17 0
167 26 0
167 35 0
167 44 0
167 52 0
167 61 0
167 70 0
167 79 0
167 88 0
167 97 0
167 105 0
167 114 0
167 123 0
167 132 0
167 141 0
167 150 0
167 158 0
167 167 0
167 176 0
167 185 0
167 194 0
167 203 0
167 211 0
167 220 0
167 229 0
167 238 0
167 247 0
167 255 0
172 0 0
172 8 0
172 17 0
172 26 0
172 35 0
172 44 0
172 52 0
172 61 0
172 70 0
172 79 0
172 88 0
172 97 0
172 105 0
172 114 0
172 123 0
172 132 0
172 141 0
172 150 0
172 158 0
172 167 0
172 176 0
172 185 0
172 194 0
172 203 0
172 211 0
172 220 0
172 229 0
172 238 0
172 247 0
172 255 0
177 0 0
177 8 0
177 17 0
177 26 0
177 35 0
177 44 0
177 52 0
177 61 0
177 70 0
177 79 0
177 88 0
177 97 0
177 105 0
177 114 0
177 123 0
177 132 0
177 141 0
177 150 0
177 158 0
177 167 0
177 176 0
177 185 0
177 194 0
177 203 0
177 211 0
177 220 0
177 229 0
177 238 0
177 247 0
177 255 0
182 0 0
182 8 0
182 17 0
182 26 0
182 35 0
182 44 0
182 52 0
182 61 0
182 70 0
182 79 0
182 88 0
182 97 0
182 105 0
182 114 0
182 123 0
182 132 0
182 141 0
182 150 0
182 158 0
182 167 0
182 176 0
182 185 0
182 194 0
182 203 0
182 211 0
182 220 0
182 229 0
182 238 0
182 247 0
182 255 0
188 0 0
188 8 0
188 17 0
188 26 0
188 35 0
188 44 0
188 52 0
188 61 0
188 70 0
188 79 0
188 88 0
188 97 0
188 105 0
188 114 0
188 123 0
188 132 0
188 141 0
188 150 0
188 158 0
188 167 0
188 176 0
188 185 0
188 194 0
188 203 0
188 211 0
188 220 0
188 229 0
188 238 0
188 247 0
188 255 0
193 0 0
193 8 0
193 17 0
193 26 0
193 35 0
193 44 0
193 52 0
193 61 0
193 70 0
193 79 0
193 88 0
193 97 0
193 105 0
193 114 0
193 123 0
193 132 0
193 141 0
193 150 0
193 158 0
193 167 0
193 176 0
193 185 0
193 194 0
193 203 0
193 211 0
193 220 0
193 229 0
193 238 0
193 247 0
193 255 0
198 0 0
198 8 0
198 17 0
198 26 0
198 35 0
198 44 0
198 52 0
198 61 0
198 70 0
198 79 0
198 88 0
198 97 0
198 105 0
198 114 0
198 123 0
198 132 0
198 141 0
198 150 0
198 158 0
198 167 0
198 176 0
198 185 0
198 194 0
198 203 0
198 211 0
198 220 0
198 229 0
198 238 0
198 247 0
198 255 0
203 0 0
203 8 0
203 17 0
203 26 0
203 35 0
203 44 0
203 52 0
203 61 0
203 70 0
203 79 0
203 88 0
203 97 0
203 105 0
203 114 0
203 123 0
203 132 0
203 141 0
203 150 0
203 158 0
203 167 0
203 176 0
203 185 0
203 194 0
203 203 0
203 211 0
203 220 0
203 229 0
203 238 0
203 247 0
203 255 0
208 0 0
208 8 0
208 17 0
208 26 0
208 35 0
208 44 0
208 52 0
208 61 0
208 70 0
208 79 0
208 88 0
208 97 0
208 105 0
208 114 0
208 123 0
208 132 0
208 141 0
208 150 0
208 158 0
208 167 0
208 176 0
208 185 0
208 194 0
208 203 0
208 211 0
208 220 0
208 229 0
208 238 0
208 247 0
208 255 0
214 0 0
214 8 0
214 17 0
214 26 0
214 35 0
214 44 0
214 52 0
214 61 0
214 70 0
214 79 0
214 88 0
214 97 0
214 105 0
214 114 0
214 123 0
214 132 0
214 141 0
214 150 0
214 158 0
214 167 0
214 176 0
214 185 0
214 194 0
214 203 0
214 211 0
214 220 0
214 229 0
214 238 0
214 247 0
214 255 0
219 0 0
219 8 0
219 17 0
219 26 0
219 35 0
219 44 0
219 52 0
219 61 0
219 70 0
219 79 0
219 88 0
219 97 0
219 105 0
219 114 0
219 123 0
219 132 0
219 141 0
219 150 0
219 158 0
219 167 0
219 176 0
219 185 0
219 194 0
219 203 0
219 211 0
219 220 0
219 229 0
219 238 0
219 247 0
219 255 0
224 0 0
224 8 0
224 17 0
224 26 0
224 35 0
224 44 0
224 52 0
224 61 0
224 70 0
224 79 0
224 88 0
224 97 0
224 105 0
224 114 0
224 123 0
224 132 0
224 141 0
224 150 0
224 158 0
224 167 0
224 176 0
224 185 0
224 194 0
224 203 0
224 211 0
224 220 0
224 229 0
224 238 0
224 247 0
224 255 0
229 0 0
229 8 0
229 17 0
229 26 0
229 35 0
229 44 0
229 52 0
229 61 0
229 70 0
229 79 0
229 88 0
229 97 0
229 105 0
229 114 0
229 123 0
229 132 0
229 141 0
229 150 0
229 158 0
229 167 0
229 176 0
229 185 0
229 194 0
229 203 0
229 211 0
229 220 0
229 229 0
229 238 0
229 247 0
229 255 0
235 0 0
235 8 0
235 17 0
235 26 0
235 35 0
235 44 0
235 52 0
235 61 0
235 70 0
235 79 0
235 88 0
235 97 0
235 105 0
235 114 0
235 123 0
235 132 0
235 141 0
235 150 0
235 158 0
235 167 0
235 176 0
235 185 0
235 194 0
235 203 0
235 211 0
235 220 0
235 229 0
235 238 0
235 247 0
235 255 0
240 0 0
240 8 0
240 17 0
240 26 0
240 35 0
240 44 0
240 52 0
240 61 0
240 70 0
240 79 0
240 88 0
240 97 0
240 105 0
240 114 0
240 123 0
240 132 0
240 141 0
240 150 0
240 158 0
240 167 0
240 176 0
240 185 0
240 194 0
240 203 0
240 211 0
240 220 0
240 229 0
240 238 0
240 247 0
240 255 0
245 0 0
245 8 0
245 17 0
245 26 0
245 35 0
245 44 0
245 52 0
245 61 0
245 70 0
245 79 0
245 88 0
245 97 0
245 105 0
245 114 0
245 123 0
245 132 0
245 141 0
245 150 0
245 158 0
245 167 0
245 176 0
245 185 0
245 194 0
245 203 0
245 211 0
245 220 0
245 229 0
245 238 0
245 247 0
245 255 0
250 0 0
250 8 0
250 17 0
250 26 0
250 35 0
250 44 0
250 52 0
250 61 0
250 70 0
250 79 0
250 88 0
250 97 0
250 105 0
250 114 0
250 123 0
250 132 0
250 141 0
250 150 0
250 158 0
250 167 0
250 176 0
250 185 0
250 194 0
250 203 0
250 211 0
250 220 0
250 229 0
250 238 0
250 247 0
250 255 0
255 0 0
255 8 0
255 17 0
255 26 0
255 35 0
255 44 0
255 52 0
255 61 0
255 70 0
255 79 0
255 88 0
255 97 0
255 105 0
255 114 0
255 123 0
255 132 0
255 141 0
255 150 0
255 158 0
255 167 0
255 176 0
255 185 0
255 194 0
255 203 0
255 211 0
255 220 0
255 229 0
255 238 0
255 247 0
255 255 0
